<svg width="76" height="27" viewBox="0 0 76 27" fill="none" xmlns="http://www.w3.org/2000/svg">
<g clip-path="url(#clip0_410_74)">
<path d="M38.8359 12.6211C38.556 12.4062 38.1523 12.2988 37.625 12.2988C36.9414 12.2988 36.3685 12.6211 35.9062 13.2656C35.4505 13.9102 35.2227 14.7891 35.2227 15.9023V21H33.6211V11H35.2227V13.0605H35.2617C35.4896 12.3574 35.8379 11.8105 36.3066 11.4199C36.7754 11.0228 37.2995 10.8242 37.8789 10.8242C38.2956 10.8242 38.6146 10.8698 38.8359 10.9609V12.6211ZM48.6113 16.4004H41.5508C41.5768 17.5137 41.8763 18.373 42.4492 18.9785C43.0221 19.584 43.8099 19.8867 44.8125 19.8867C45.9388 19.8867 46.974 19.5156 47.918 18.7734V20.2773C47.0391 20.9154 45.877 21.2344 44.4316 21.2344C43.0189 21.2344 41.9089 20.7819 41.1016 19.877C40.2943 18.9655 39.8906 17.6862 39.8906 16.0391C39.8906 14.4831 40.3301 13.2168 41.209 12.2402C42.0944 11.2572 43.1914 10.7656 44.5 10.7656C45.8086 10.7656 46.821 11.1888 47.5371 12.0352C48.2533 12.8815 48.6113 14.0566 48.6113 15.5605V16.4004ZM46.9707 15.043C46.9642 14.1185 46.7396 13.3991 46.2969 12.8848C45.8607 12.3704 45.252 12.1133 44.4707 12.1133C43.7155 12.1133 43.0742 12.3835 42.5469 12.9238C42.0195 13.4642 41.694 14.1706 41.5703 15.043H46.9707ZM58.2012 21H56.5996V19.4375H56.5605C55.8639 20.6354 54.8385 21.2344 53.4844 21.2344C52.4883 21.2344 51.707 20.9707 51.1406 20.4434C50.5807 19.916 50.3008 19.2161 50.3008 18.3438C50.3008 16.4753 51.401 15.388 53.6016 15.082L56.5996 14.6621C56.5996 12.9629 55.9128 12.1133 54.5391 12.1133C53.3346 12.1133 52.2474 12.5234 51.2773 13.3438V11.7031C52.2604 11.0781 53.3932 10.7656 54.6758 10.7656C57.026 10.7656 58.2012 12.0091 58.2012 14.4961V21ZM56.5996 15.9414L54.1875 16.2734C53.4453 16.3776 52.8854 16.5632 52.5078 16.8301C52.1302 17.0905 51.9414 17.556 51.9414 18.2266C51.9414 18.7148 52.1139 19.1152 52.459 19.4277C52.8105 19.7337 53.276 19.8867 53.8555 19.8867C54.6497 19.8867 55.304 19.61 55.8184 19.0566C56.3392 18.4967 56.5996 17.7904 56.5996 16.9375V15.9414ZM75.418 21H73.8164V15.2578C73.8164 14.151 73.6439 13.3503 73.2988 12.8555C72.9603 12.3607 72.3874 12.1133 71.5801 12.1133C70.8965 12.1133 70.3138 12.4258 69.832 13.0508C69.3568 13.6758 69.1191 14.4245 69.1191 15.2969V21H67.5176V15.0625C67.5176 13.0964 66.7591 12.1133 65.2422 12.1133C64.5391 12.1133 63.9596 12.4095 63.5039 13.002C63.0482 13.5879 62.8203 14.3529 62.8203 15.2969V21H61.2188V11H62.8203V12.582H62.8594C63.569 11.3711 64.6042 10.7656 65.9648 10.7656C66.6484 10.7656 67.2441 10.9577 67.752 11.3418C68.2598 11.7194 68.6081 12.2174 68.7969 12.8359C69.5391 11.4557 70.6458 10.7656 72.1172 10.7656C74.3177 10.7656 75.418 12.123 75.418 14.8379V21Z" fill="#FAFAFA"/>
<rect width="27" height="27" rx="4" fill="#FAFAFA"/>
<path d="M7.20312 22V5.19531H11.8438C17.7656 5.19531 20.7266 7.92578 20.7266 13.3867C20.7266 15.9805 19.9023 18.0664 18.2539 19.6445C16.6133 21.2148 14.4141 22 11.6562 22H7.20312ZM9.17188 6.97656V20.2188H11.6797C13.8828 20.2188 15.5977 19.6289 16.8242 18.4492C18.0508 17.2695 18.6641 15.5977 18.6641 13.4336C18.6641 9.12891 16.375 6.97656 11.7969 6.97656H9.17188Z" fill="#333336"/>
</g>
<defs>
<clipPath id="clip0_410_74">
<rect width="76" height="27" fill="white"/>
</clipPath>
</defs>
</svg>
