<svg width="45" height="44" viewBox="0 0 45 44" fill="none" xmlns="http://www.w3.org/2000/svg">
<path d="M38.6667 15.3333H44.2222M2 42H7.55556H2ZM2 35.3333H7.55556H2ZM2 28.6667H7.55556H2ZM2 22H7.55556H2ZM14.2222 42H19.7778H14.2222ZM14.2222 35.3333H19.7778H14.2222ZM14.2222 28.6667H19.7778H14.2222ZM14.2222 22H19.7778H14.2222ZM14.2222 15.3333H19.7778H14.2222ZM14.2222 8.66667H19.7778H14.2222ZM14.2222 2H19.7778H14.2222ZM26.4444 42H32H26.4444ZM38.6667 42H44.2222H38.6667ZM26.4444 35.3333H32H26.4444ZM38.6667 35.3333H44.2222H38.6667ZM26.4444 28.6667H32H26.4444ZM38.6667 28.6667H44.2222H38.6667ZM38.6667 22H44.2222H38.6667Z" stroke="#777777" stroke-width="4" stroke-linecap="round" stroke-linejoin="round"/>
</svg>
