<svg width="50" height="40" viewBox="0 0 50 40" fill="none" xmlns="http://www.w3.org/2000/svg">
<path d="M9.23077 10.7692C9.23077 10.3612 9.39286 9.96989 9.68137 9.68137C9.96989 9.39286 10.3612 9.23077 10.7692 9.23077H32.3077C32.7157 9.23077 33.107 9.39286 33.3956 9.68137C33.6841 9.96989 33.8462 10.3612 33.8462 10.7692C33.8462 11.1773 33.6841 11.5686 33.3956 11.8571C33.107 12.1456 32.7157 12.3077 32.3077 12.3077H10.7692C10.3612 12.3077 9.96989 12.1456 9.68137 11.8571C9.39286 11.5686 9.23077 11.1773 9.23077 10.7692ZM26.1538 18.4615C25.7458 18.4615 25.3545 18.6236 25.066 18.9121C24.7775 19.2007 24.6154 19.592 24.6154 20C24.6154 20.408 24.7775 20.7993 25.066 21.0879C25.3545 21.3764 25.7458 21.5385 26.1538 21.5385H32.3077C32.7157 21.5385 33.107 21.3764 33.3956 21.0879C33.6841 20.7993 33.8462 20.408 33.8462 20C33.8462 19.592 33.6841 19.2007 33.3956 18.9121C33.107 18.6236 32.7157 18.4615 32.3077 18.4615H26.1538ZM24.6154 29.2308C24.6154 28.8227 24.7775 28.4314 25.066 28.1429C25.3545 27.8544 25.7458 27.6923 26.1538 27.6923H32.3077C32.7157 27.6923 33.107 27.8544 33.3956 28.1429C33.6841 28.4314 33.8462 28.8227 33.8462 29.2308C33.8462 29.6388 33.6841 30.0301 33.3956 30.3186C33.107 30.6071 32.7157 30.7692 32.3077 30.7692H26.1538C25.7458 30.7692 25.3545 30.6071 25.066 30.3186C24.7775 30.0301 24.6154 29.6388 24.6154 29.2308ZM10.7692 18.4615C10.3612 18.4615 9.96989 18.6236 9.68137 18.9121C9.39286 19.2007 9.23077 19.592 9.23077 20V29.2308C9.23077 29.6388 9.39286 30.0301 9.68137 30.3186C9.96989 30.6071 10.3612 30.7692 10.7692 30.7692H20C20.408 30.7692 20.7993 30.6071 21.0879 30.3186C21.3764 30.0301 21.5385 29.6388 21.5385 29.2308V20C21.5385 19.592 21.3764 19.2007 21.0879 18.9121C20.7993 18.6236 20.408 18.4615 20 18.4615H10.7692ZM12.3077 27.6923V21.5385H18.4615V27.6923H12.3077ZM0 6.15385C0 4.52174 0.64835 2.95649 1.80242 1.80242C2.95649 0.64835 4.52174 0 6.15385 0H36.9231C38.5552 0 40.1204 0.64835 41.2745 1.80242C42.4286 2.95649 43.0769 4.52174 43.0769 6.15385V9.23077C44.709 9.23077 46.2743 9.87912 47.4283 11.0332C48.5824 12.1873 49.2308 13.7525 49.2308 15.3846V32.3077C49.2308 34.3478 48.4203 36.3044 46.9777 37.747C45.5352 39.1896 43.5786 40 41.5385 40H7.69231C5.65218 40 3.69561 39.1896 2.25302 37.747C0.810437 36.3044 0 34.3478 0 32.3077V6.15385ZM40 6.15385C40 5.3378 39.6758 4.55517 39.0988 3.97813C38.5218 3.4011 37.7391 3.07692 36.9231 3.07692H6.15385C5.3378 3.07692 4.55517 3.4011 3.97813 3.97813C3.4011 4.55517 3.07692 5.3378 3.07692 6.15385V32.3077C3.07692 33.5318 3.56319 34.7057 4.42874 35.5713C5.29429 36.4368 6.46823 36.9231 7.69231 36.9231H41.5385C42.7625 36.9231 43.9365 36.4368 44.802 35.5713C45.6676 34.7057 46.1538 33.5318 46.1538 32.3077V15.3846C46.1538 14.5686 45.8297 13.7859 45.2526 13.2089C44.6756 12.6319 43.893 12.3077 43.0769 12.3077V32.3077C43.0769 32.7157 42.9148 33.107 42.6263 33.3956C42.3378 33.6841 41.9465 33.8462 41.5385 33.8462C41.1304 33.8462 40.7391 33.6841 40.4506 33.3956C40.1621 33.107 40 32.7157 40 32.3077V6.15385Z" fill="#777777"/>
</svg>
